<svg width="77" height="82" viewBox="0 0 77 82" fill="none" xmlns="http://www.w3.org/2000/svg">
<path fill-rule="evenodd" clip-rule="evenodd" d="M7.41604 79H12H14.416H19H49H53C54.1046 79 55 78.1046 55 77V74.7222L33.5 74.9877L32.5 75L31.5 74.5294L25.2136 71.5711C25.0294 71.4844 24.8296 71.4074 24.6283 71.3297C23.956 71.0705 23.2664 70.8046 23.0812 70.1506C23.0303 69.9708 23 69.7558 23 69.5C23 69.2442 23.0303 69.0292 23.0812 68.8494C23.2664 68.1954 23.956 67.9295 24.6283 67.6703C24.8296 67.5926 25.0294 67.5156 25.2136 67.4289L31.5 64.4706L32.5 64H33.5H55V5C55 3.89543 54.1046 3 53 3H49H19H14.416H12H7.41604H6H5C3.89543 3 3 3.89543 3 5V16.822C2.74205 17.1861 2.26954 17.5 1.45455 17.5C0.727273 17.5 0.272727 17.25 0 16.9375V5C0 2.23858 2.23858 0 5 0H12H19H53H60H67C69.7614 0 72 2.23858 72 5V64.0005C72.6905 64.0093 73.383 64.1241 73.9722 64.4835C75.1422 65.1974 76.5443 66.5256 76.9095 68.5C76.9681 68.8167 77 69.15 77 69.5C77 69.8543 76.9673 70.1874 76.9073 70.5C76.5056 72.5949 74.8796 73.7722 73.6633 74.277C73.2331 74.4555 72.7647 74.5029 72.299 74.5087L72 74.5123V77C72 79.7614 69.7614 82 67 82H60H53H19H12H5C2.23858 82 0 79.7614 0 77V21.0625C0.272727 20.75 0.727273 20.5 1.45455 20.5C2.26954 20.5 2.74205 20.8139 3 21.178V77C3 78.1046 3.89543 79 5 79H6H7.41604ZM58 77V74.6852L62 74.6358V77C62 78.1046 61.1046 79 60 79H57.584C57.8516 78.3875 58 77.7111 58 77ZM65 77V74.5988L69 74.5494V77C69 78.1046 68.1046 79 67 79H64.584C64.8515 78.3875 65 77.7111 65 77ZM69 5V64H65V5C65 4.2889 64.8515 3.61246 64.584 3H67C68.1046 3 69 3.89543 69 5ZM62 5V64H58V5C58 4.2889 57.8516 3.61246 57.584 3H60C61.1046 3 62 3.89543 62 5ZM33.5 72.9875L72.2743 72.5088C72.6445 72.5042 72.8141 72.464 72.8967 72.4297C73.6743 72.107 74.4983 71.4896 74.8386 70.5H64.5C63.9477 70.5 63.5 70.0523 63.5 69.5C63.5 68.9477 63.9477 68.5 64.5 68.5H74.8509C74.5309 67.4606 73.7412 66.6855 72.9305 66.1908C72.7649 66.0898 72.4629 66 71.912 66H33.5V68.7405L58.9906 68.5C59.5428 68.4948 59.9947 68.9383 60 69.4906C60.0052 70.0428 59.5617 70.4947 59.0094 70.5L33.5 70.7406V72.9875ZM31.5 72.319V69.75V66.681L26.0652 69.2385C25.8488 69.3403 25.6225 69.4302 25.4421 69.5C25.6225 69.5698 25.8488 69.6597 26.0652 69.7615L31.5 72.319ZM24.754 69.7935C24.7504 69.7961 24.7484 69.7974 24.7483 69.7974C24.7482 69.7974 24.75 69.796 24.754 69.7935ZM24.7483 69.2026C24.7484 69.2026 24.7504 69.2039 24.754 69.2065C24.75 69.204 24.7482 69.2026 24.7483 69.2026ZM7 34C7 33.4477 7.44772 33 8 33H49C49.5523 33 50 33.4477 50 34C50 34.5523 49.5523 35 49 35H8C7.44772 35 7 34.5523 7 34ZM7 53C7 52.4477 7.44772 52 8 52H49C49.5523 52 50 52.4477 50 53C50 53.5523 49.5523 54 49 54H8C7.44772 54 7 53.5523 7 53ZM8 42C7.44772 42 7 42.4477 7 43C7 43.5523 7.44772 44 8 44H35C35.5523 44 36 43.5523 36 43C36 42.4477 35.5523 42 35 42H8ZM38 43C38 42.4477 38.4477 42 39 42H49C49.5523 42 50 42.4477 50 43C50 43.5523 49.5523 44 49 44H39C38.4477 44 38 43.5523 38 43ZM11 10H25C25.5523 10 26 10.4477 26 11V23C26 23.5522 25.5525 23.9998 25.0004 24C25.0004 23.8428 24.9755 23.683 24.923 23.5257C24.6948 22.841 24.1355 21.7835 23.4517 20.8118C23.0516 20.2432 22.5422 19.6069 21.9506 19.0651C22.6084 18.2186 23 17.155 23 16C23 13.2386 20.7614 11 18 11C15.2386 11 13 13.2386 13 16C13 17.2799 13.4809 18.4474 14.2718 19.3318C13.7975 19.8088 13.3844 20.3342 13.0483 20.8118C12.3645 21.7835 11.8052 22.841 11.577 23.5257C11.5245 23.683 11.4996 23.8428 11.4996 24H11C10.4477 24 10 23.5523 10 23V11C10 10.4477 10.4477 10 11 10ZM14.6279 24H21.8721C21.6816 23.6118 21.3815 23.0828 20.9983 22.5382C20.3975 21.6844 19.7828 21.0684 19.3292 20.8416L19.3034 20.8284C18.8878 20.9403 18.4509 21 18 21C17.6747 21 17.3567 20.9689 17.0488 20.9096C16.6103 21.1775 16.0502 21.7588 15.5017 22.5382C15.1185 23.0828 14.8184 23.6118 14.6279 24ZM7 11C7 8.79086 8.79086 7 11 7H25C27.2091 7 29 8.79086 29 11V23C29 25.2091 27.2091 27 25 27H11C8.79086 27 7 25.2091 7 23V11ZM20 16C20 17.1046 19.1046 18 18 18C16.8954 18 16 17.1046 16 16C16 14.8954 16.8954 14 18 14C19.1046 14 20 14.8954 20 16Z" fill="white"/>
</svg>
