<svg width="63" height="82" viewBox="0 0 63 82" fill="none" xmlns="http://www.w3.org/2000/svg">
<path fill-rule="evenodd" clip-rule="evenodd" d="M12 4C12 3.44772 12.4477 3 13 3H59C59.5523 3 60 3.44772 60 4V71C60 71.5523 59.5523 72 59 72C58.4477 72 58 72.4477 58 73V74C58 74.5523 58.4477 75 59 75H60H62C62.5523 75 63 74.5523 63 74V72V3V1C63 0.447715 62.5523 0 62 0H60H12H10C9.44771 0 9 0.447715 9 1V3V4C9 4.55228 9.44772 5 10 5H11C11.5523 5 12 4.55228 12 4ZM38.5 9H1C0.447715 9 0 9.44772 0 10V81C0 81.5523 0.447714 82 0.999999 82H54C54.5523 82 55 81.5523 55 81V24.5V22.7334V22.5L41.5 9H41.2765H38.5ZM38.5 12H3V79H52V24.5H39.5C39.1667 24.5 38.5 24.2 38.5 23V12ZM41 22V13L50 22H41ZM21.5 22.5H11V19.5H21.5V22.5ZM11 30.5H44V27.5H11V30.5ZM44 46.5H11V43.5H44V46.5ZM11 63.5H44V60.5H11V63.5ZM21 55.5H11V52.5H21V55.5ZM11 71.5H17V68.5H11V71.5ZM44 38.5H34V35.5H44V38.5ZM23 55.5H44V52.5H23V55.5ZM33 38.5H11V35.5H33V38.5ZM19 71.5H44V68.5H19V71.5Z" fill="white"/>
</svg>
