<svg width="79" height="84" viewBox="0 0 79 84" fill="none" xmlns="http://www.w3.org/2000/svg">
<path fill-rule="evenodd" clip-rule="evenodd" d="M31.0379 12.2574C30.6309 15.5138 25.441 19.0416 22.8969 20.3984L22.8969 22.9424C22.8969 24.1636 22.2185 24.4689 21.8793 24.4689C20.3529 24.9777 20.3529 26.5041 20.3529 28.0305C20.3529 29.557 21.3705 33.6275 23.4057 33.6275C25.0339 33.6275 25.7802 33.9667 25.9498 34.1363C26.9674 36.6804 29.5115 40.7509 31.5467 43.2949C33.1749 45.3302 36.9741 45.839 38.6701 45.839H39.1759C40.8856 45.8333 44.6515 45.3189 46.2707 43.295C48.3059 40.7509 50.85 36.6804 51.8676 34.1363C52.0372 33.9667 52.7835 33.6275 54.4117 33.6275C56.4469 33.6275 57.4645 29.557 57.4645 28.0306C57.4645 26.5042 57.4645 24.9777 55.9381 24.4689C55.5989 24.4689 54.9205 24.1636 54.9205 22.9425V21.1322C54.6845 20.0942 53.1878 19.5367 52.4081 19.3808C49.6944 18.872 43.3512 17.6508 39.6877 16.8367C36.0243 16.0226 32.3948 13.4446 31.0379 12.2574ZM54.9205 17.9136L52.4078 16.8367C48.3373 16.1583 39.3822 14.3944 36.1258 12.7662C33.6584 11.5326 32.4997 10.1119 31.7431 9.18428C31.2515 8.58155 30.9296 8.18693 30.5289 8.18693C29.6503 8.18693 29.5302 8.56616 29.1864 9.65204C29.132 9.82394 29.072 10.0136 29.0024 10.2222L29.0024 10.2222C28.7914 10.8551 28.6679 11.2256 28.5231 11.5875C28.3187 12.0985 28.0717 12.5925 27.476 13.7839C26.6619 15.412 23.745 17.3454 22.3881 17.8543H22.3136C22.1396 17.7869 21.9979 17.2674 21.92 16.9813C21.9033 16.9203 21.8896 16.8699 21.879 16.8367C21.7094 15.9887 21.472 13.8856 21.879 12.2574C22.2861 10.6292 23.4055 8.86535 23.9143 8.18693C24.0839 8.01732 24.7284 7.47459 25.9495 6.66049C26.9672 6.15168 27.9848 5.98207 28.4936 6.15168C28.6632 6.32128 29.2059 6.66049 30.02 6.66049C30.8341 6.66049 31.0377 6.32128 31.0377 6.15168C31.0377 5.30366 31.75 3.50585 34.5994 3.0988C38.161 2.58999 38.6699 2.58999 41.2139 2.58999C43.2492 2.58999 46.4716 3.94682 47.8285 4.62524C52.7131 6.25344 55.2911 11.4094 55.9695 13.7839V17.8543H54.9205V17.9136ZM57.475 21.9332L57.4962 21.9248C58.005 19.3808 58.8191 13.7838 58.005 11.7486C57.1909 9.71332 55.2913 7.16926 54.4433 6.15163C52.5777 4.62519 48.0323 1.36879 44.7759 0.554692C40.7054 -0.462933 36.1261 0.0458796 33.0732 1.06351C30.6309 1.87761 29.6811 3.09877 29.5115 3.60759C29.3419 3.77719 28.6974 4.1164 27.4762 4.1164C25.9498 4.1164 24.4234 4.1164 22.3881 6.66047C20.3529 9.20453 19.3352 11.2398 19.3352 13.7838V16.8367C19.4665 17.3619 19.8215 18.4158 20.3529 19.2427V21.9248C19.5048 22.6032 17.8088 24.2653 17.8088 25.4865C17.8088 25.6491 17.803 25.8463 17.7964 26.0726L17.7964 26.0729C17.7408 27.9715 17.6253 31.9175 20.3529 34.6451C21.3705 35.6627 22.8969 36.1716 23.9145 36.1716C25.441 39.0548 29.1044 45.1267 31.5467 46.3478C33.7213 47.4351 35.6377 48.006 37.112 48.2446V48.3831H39.1473L39.1729 48.3831H40.7054V48.2446C42.1797 48.0061 44.0961 47.4351 46.2707 46.3479C48.713 45.1267 52.3764 39.0549 53.9028 36.1716C54.9205 36.1716 56.4469 35.6628 57.4645 34.6452C60.1921 31.9176 60.0766 27.9715 60.021 26.0729C60.0144 25.8465 60.0086 25.6492 60.0086 25.4865C60.0086 24.2704 58.3264 22.6169 57.475 21.9332ZM0 82.4736V66.1916C0.339208 63.9868 2.03525 59.0683 6.10575 57.033C10.1763 54.9978 20.6917 50.7577 25.4406 48.892C26.119 48.5528 27.5776 48.1797 27.9847 49.4008C28.3917 50.622 31.5464 59.4075 33.0728 63.6476L35.1081 59.0683L33.5816 55.5066C33.412 54.8282 33.2763 53.4713 34.0904 53.4713H39.6874V53.4714H44.2668C45.0809 53.4714 44.9453 54.8283 44.7757 55.5067L43.2492 59.0684L45.2845 63.6477C46.8109 59.4076 49.9655 50.6221 50.3726 49.4009C50.7796 48.1798 52.2382 48.5529 52.9166 48.8921C57.6656 50.7578 68.181 54.9979 72.2515 57.0331C76.322 59.0684 78.0181 63.9869 78.3573 66.1917V82.4737C78.3573 83.6949 77.6789 84.0002 77.3397 84.0002H36.6346V84.0001H1.01763C0.678417 84.0001 0 83.6948 0 82.4736ZM41.7226 81.4561H75.8132V67.2094C75.8132 63.1389 72.4211 60.086 70.7251 59.0684L52.4078 51.4362L46.8109 66.7006C46.6413 67.379 46.0986 68.7358 45.2845 68.7358C44.4704 68.7358 44.2668 68.3966 44.2668 68.227L40.7051 59.0684L41.7228 56.0155H38.6699V56.0154H36.6345L37.6521 59.0683L34.0904 68.2269C34.0904 68.3965 33.8869 68.7357 33.0728 68.7357C32.2587 68.7357 31.716 67.3789 31.5464 66.7005L25.9494 51.4361L7.63219 59.0683C5.93615 60.0859 2.54406 63.1388 2.54406 67.2093V81.456H41.7226V81.4561ZM54.299 76.003V69.6091H65.781V76.003H54.299ZM51.899 68.001C51.899 67.5637 52.2535 67.2091 52.6908 67.2091H67.3891C67.8264 67.2091 68.181 67.5637 68.181 68.001V77.6112C68.181 78.0485 67.8264 78.403 67.3891 78.403H52.6908C52.2535 78.403 51.899 78.0485 51.899 77.6112V68.001Z" fill="white"/>
</svg>
